<?xml version="1.0" encoding="UTF-8"?>
<svg id="Layer_1" data-name="Layer 1" xmlns="http://www.w3.org/2000/svg" viewBox="0 0 1266.37 1618.86">
  <defs>
    <style>
      .cls-1 {
        fill: #000;
        stroke-width: 0px;
      }
    </style>
  </defs>
  <path class="cls-1" d="M548.42,25.56L68.57,343.91C25.74,372.32,0,420.29,0,471.68v993.84c0,84.69,68.65,153.34,153.34,153.34h326.51c84.69,0,153.34-68.65,153.34-153.34v-286.45c0-28.94-23.46-52.4-52.4-52.4h-40.46c-28.94,0-52.4-23.46-52.4-52.4v-185.55c0-28.94,23.46-52.4,52.4-52.4h185.55c28.94,0,52.4,23.46,52.4,52.4v185.55c0,28.94,23.46,52.4,52.4,52.4h282.35c84.69,0,153.34-68.65,153.34-153.34v-501.64c0-51.39-25.74-99.36-68.57-127.78L717.96,25.56c-51.37-34.08-118.17-34.08-169.54,0Z"/>
</svg>