<?xml version="1.0" encoding="UTF-8"?>
<svg id="Layer_1" data-name="Layer 1" xmlns="http://www.w3.org/2000/svg" viewBox="0 0 1023.09 365.25">
  <defs>
    <style>
      .cls-1 {
        fill: #000;
        stroke-width: 0px;
      }
    </style>
  </defs>
  <path class="cls-1" d="M.04,0h111.22c57.95,0,84.71,20.26,84.71,63.14s-26.76,62.88-84.71,62.88h-63.67v55.87H.04V0ZM47.59,38.2v49.63h63.41c25.47,0,36.38-8.06,36.38-24.69s-10.91-24.95-36.38-24.95h-63.41Z"/>
  <path class="cls-1" d="M231.31,0h111.22c57.95,0,84.71,21.05,84.71,61.07,0,31.44-15.33,49.89-44.96,54.83-.78.26-2.34.26-3.12.52,13.77,11.17,23.13,24.69,37.94,24.69h22.86v41.58h-28.58c-48.86,0-58.73-60.03-105.24-62.63h-27.28v61.85h-47.56V0ZM278.87,38.2v49.37h63.41c25.47,0,36.38-8.06,36.38-24.69s-10.91-24.69-36.38-24.69h-63.41Z"/>
  <path class="cls-1" d="M469.08,0h47.56v181.9h-47.56V0Z"/>
  <path class="cls-1" d="M562.36,0h53.79l62.89,80.81h7.27L749.2,0h53.53v181.9h-47.3v-115.64h-4.68l-49.89,65.22h-36.64l-49.89-65.22h-4.42v115.64h-47.56V0Z"/>
  <path class="cls-1" d="M848.46,0h174.63v38.2h-127.07v32.74h104.98v35.08h-104.98v37.68h127.07v38.2h-174.63V0Z"/>
  <path class="cls-1" d="M0,217.29h7.8v48.74H0v-48.74Z"/>
  <path class="cls-1" d="M27.72,217.29h7.8l29.66,35.72h1.12v-35.72h7.8v48.74h-7.8l-29.59-35.65h-1.18v35.65h-7.8v-48.74Z"/>
  <path class="cls-1" d="M114.79,244.94c-10.66-.14-23.54.35-23.54-13.93,0-11.55,10.51-14.27,23.11-14.41,7.17-.07,13.93.69,20.13,1.95v6.83c-6.83-1.46-15.6-2.51-21.93-2.37-7.17.21-13.51,2.02-13.51,8.22,0,6.75,7.03,6.96,16.36,6.96s21.59-.21,21.59,13.93c0,9.81-8.29,14.76-24.79,14.55-7.94-.07-16.02-1.32-20.96-2.16v-6.96c3.83.56,12.95,2.51,21.87,2.58,10.58.07,16.08-2.58,16.08-8.36,0-6.33-6.61-6.75-14.41-6.82Z"/>
  <path class="cls-1" d="M194.53,245.77v-28.55h7.73v28.55c0,13.37-9.74,20.96-24.37,20.96s-24.44-7.59-24.44-20.96v-28.55h7.8v28.55c0,9.61,6.9,14.48,16.65,14.48s16.64-4.87,16.64-14.48Z"/>
  <path class="cls-1" d="M221.5,217.29h27.36c13.65,0,20.2,5.29,20.2,15.18,0,8.77-4.66,14.35-13.65,14.35,5.36,5.08,8.14,12.25,13.29,12.25h5.78v6.96h-7.59c-11.7,0-12.32-16.99-25.21-18.73h-12.39v18.73h-7.8v-48.74ZM229.3,223.84v17.26h19.36c8.91,0,12.46-2.79,12.46-8.64s-3.55-8.63-12.46-8.63h-19.36Z"/>
  <path class="cls-1" d="M306.27,217.29h14.9l21.59,48.74h-8.36l-5.02-11.63h-31.33l-5.01,11.63h-8.36l21.59-48.74ZM326.74,248.14l-10.24-23.88h-5.57l-10.24,23.88h26.04Z"/>
  <path class="cls-1" d="M357.82,217.29h7.8l29.66,35.72h1.12v-35.72h7.8v48.74h-7.8l-29.59-35.65h-1.18v35.65h-7.8v-48.74Z"/>
  <path class="cls-1" d="M471.06,257.81v6.83c-4.87,1.25-11.07,2.09-20.89,2.09-17.19,0-28.82-9.61-28.82-25.06s11.63-25.07,28.82-25.07c9.82,0,16.02.83,20.89,2.09v6.83c-5.29-1.46-13.78-2.37-21.17-2.37-12.32,0-20.61,6.83-20.61,18.52s8.29,18.52,20.61,18.52c7.38,0,15.88-.91,21.17-2.37Z"/>
  <path class="cls-1" d="M487.52,217.29h42.47v6.83h-34.67v12.95h29.11v6.83h-29.11v15.32h34.67v6.83h-42.47v-48.74Z"/>
  <path class="cls-1" d="M592.7,244.94c-10.66-.14-23.54.35-23.54-13.93,0-11.55,10.51-14.27,23.11-14.41,7.17-.07,13.93.69,20.13,1.95v6.83c-6.83-1.46-15.6-2.51-21.93-2.37-7.17.21-13.51,2.02-13.51,8.22,0,6.75,7.03,6.96,16.36,6.96s21.59-.21,21.59,13.93c0,9.81-8.29,14.76-24.79,14.55-7.94-.07-16.02-1.32-20.96-2.16v-6.96c3.83.56,12.95,2.51,21.87,2.58,10.58.07,16.08-2.58,16.08-8.36,0-6.33-6.61-6.75-14.41-6.82Z"/>
  <path class="cls-1" d="M632.06,217.29h42.47v6.83h-34.67v12.95h29.11v6.83h-29.11v15.32h34.67v6.83h-42.47v-48.74Z"/>
  <path class="cls-1" d="M692.38,217.29h27.36c13.65,0,20.2,5.29,20.2,15.18,0,8.77-4.66,14.35-13.65,14.35,5.36,5.08,8.14,12.25,13.29,12.25h5.78v6.96h-7.59c-11.7,0-12.32-16.99-25.21-18.73h-12.39v18.73h-7.8v-48.74ZM700.18,223.84v17.26h19.36c8.91,0,12.46-2.79,12.46-8.64s-3.55-8.63-12.46-8.63h-19.36Z"/>
  <path class="cls-1" d="M755.56,217.29h8.36l17.89,41.78h5.57l17.89-41.78h8.35l-21.58,48.74h-14.9l-21.59-48.74Z"/>
  <path class="cls-1" d="M828.7,217.29h7.8v48.74h-7.8v-48.74Z"/>
  <path class="cls-1" d="M903.34,257.81v6.83c-4.87,1.25-11.07,2.09-20.89,2.09-17.19,0-28.82-9.61-28.82-25.06s11.63-25.07,28.82-25.07c9.82,0,16.02.83,20.89,2.09v6.83c-5.29-1.46-13.78-2.37-21.17-2.37-12.32,0-20.61,6.83-20.61,18.52s8.29,18.52,20.61,18.52c7.38,0,15.88-.91,21.17-2.37Z"/>
  <path class="cls-1" d="M919.81,217.29h42.47v6.83h-34.67v12.95h29.11v6.83h-29.11v15.32h34.67v6.83h-42.47v-48.74Z"/>
  <path class="cls-1" d="M1000.88,244.94c-10.66-.14-23.54.35-23.54-13.93,0-11.55,10.51-14.27,23.11-14.41,7.17-.07,13.93.69,20.13,1.95v6.83c-6.83-1.46-15.6-2.51-21.93-2.37-7.17.21-13.51,2.02-13.51,8.22,0,6.75,7.03,6.96,16.36,6.96s21.59-.21,21.59,13.93c0,9.81-8.29,14.76-24.79,14.55-7.94-.07-16.02-1.32-20.96-2.16v-6.96c3.83.56,12.95,2.51,21.87,2.58,10.58.07,16.08-2.58,16.08-8.36,0-6.33-6.61-6.75-14.41-6.82Z"/>
  <g>
    <path class="cls-1" d="M20.66,354.29h6.78l4.07-9.18h13.15l4.09,9.18h6.78l-17.43-37.67-17.43,37.67ZM42.93,340.02h-9.67l4.84-11.31,4.83,11.31Z"/>
    <path class="cls-1" d="M87.33,342.32c0,2.21-.59,3.98-1.78,5.33-1.19,1.34-2.92,2.02-5.2,2.02s-4.05-.67-5.23-2.02c-1.17-1.34-1.75-3.12-1.75-5.33v-23.7h-6.02v23.96c0,1.97.3,3.73.91,5.28.62,1.54,1.51,2.86,2.68,3.95,1.17,1.08,2.55,1.92,4.15,2.5,1.6.58,3.35.86,5.25.86s3.65-.29,5.25-.86c1.59-.58,2.97-1.41,4.13-2.5,1.16-1.09,2.05-2.41,2.68-3.95.63-1.55.95-3.3.95-5.28v-23.96h-6.02v23.7Z"/>
    <polygon class="cls-1" points="105.43 324.17 114.81 324.17 114.81 354.29 120.87 354.29 120.87 324.17 130.3 324.17 130.3 318.62 105.43 318.62 105.43 324.17"/>
    <path class="cls-1" d="M169.83,323.23c-1.68-1.65-3.65-2.93-5.89-3.85-2.25-.91-4.71-1.38-7.39-1.38s-5.05.46-7.32,1.38c-2.26.92-4.22,2.2-5.91,3.85-1.68,1.65-2.98,3.6-3.9,5.84-.91,2.24-1.38,4.7-1.38,7.39s.46,5.11,1.38,7.39c.92,2.28,2.2,4.24,3.85,5.91,1.65,1.67,3.61,2.96,5.89,3.9,2.28.93,4.74,1.4,7.39,1.4s5.16-.47,7.42-1.4c2.26-.94,4.22-2.23,5.89-3.9s2.96-3.63,3.88-5.91c.91-2.28,1.38-4.74,1.38-7.39s-.46-5.15-1.38-7.39c-.92-2.24-2.22-4.19-3.9-5.84ZM167.13,343c-1.04,1.92-2.46,3.43-4.28,4.51-1.82,1.09-3.92,1.64-6.3,1.64s-4.44-.55-6.27-1.64c-1.84-1.08-3.27-2.59-4.31-4.51-1.04-1.92-1.56-4.1-1.56-6.55s.52-4.63,1.56-6.55c1.04-1.92,2.47-3.42,4.31-4.51,1.84-1.09,3.93-1.63,6.27-1.63s4.53.54,6.35,1.63,3.24,2.59,4.26,4.51c1.02,1.92,1.53,4.11,1.53,6.55s-.52,4.63-1.56,6.55Z"/>
    <rect class="cls-1" x="213.29" y="314.28" width="5.35" height="50.97"/>
    <polygon class="cls-1" points="282.87 332.37 264.93 332.37 264.93 318.62 258.91 318.62 258.91 354.29 264.93 354.29 264.93 337.93 282.87 337.93 282.87 354.29 288.88 354.29 288.88 318.62 282.87 318.62 282.87 332.37"/>
    <path class="cls-1" d="M334.53,323.23c-1.68-1.65-3.65-2.93-5.89-3.85-2.25-.91-4.71-1.38-7.39-1.38s-5.05.46-7.32,1.38c-2.26.92-4.22,2.2-5.91,3.85-1.68,1.65-2.98,3.6-3.9,5.84-.91,2.24-1.38,4.7-1.38,7.39s.46,5.11,1.38,7.39c.92,2.28,2.2,4.24,3.85,5.91,1.65,1.67,3.61,2.96,5.89,3.9,2.28.93,4.74,1.4,7.39,1.4s5.16-.47,7.42-1.4c2.26-.94,4.22-2.23,5.89-3.9,1.67-1.67,2.96-3.63,3.88-5.91.91-2.28,1.38-4.74,1.38-7.39s-.46-5.15-1.38-7.39c-.92-2.24-2.22-4.19-3.9-5.84ZM331.83,343c-1.04,1.92-2.46,3.43-4.28,4.51-1.82,1.09-3.92,1.64-6.3,1.64s-4.44-.55-6.27-1.64c-1.84-1.08-3.27-2.59-4.31-4.51-1.04-1.92-1.56-4.1-1.56-6.55s.52-4.63,1.56-6.55c1.04-1.92,2.47-3.42,4.31-4.51,1.84-1.09,3.93-1.63,6.27-1.63s4.53.54,6.35,1.63,3.24,2.59,4.26,4.51c1.02,1.92,1.53,4.11,1.53,6.55s-.52,4.63-1.56,6.55Z"/>
    <polygon class="cls-1" points="371.1 341.04 356.48 316.83 351.58 354.29 357.8 354.29 360.25 332.58 371.1 350.98 381.96 332.58 384.46 354.29 390.68 354.29 385.78 316.83 371.1 341.04"/>
    <polygon class="cls-1" points="408.21 318.62 404.49 318.62 404.49 354.29 408.21 354.29 410.4 354.29 426.2 354.29 426.2 348.99 410.4 348.99 410.4 337.78 425.18 337.78 425.18 332.58 410.4 332.58 410.4 323.92 426.2 323.92 426.2 318.62 410.4 318.62 408.21 318.62"/>
    <rect class="cls-1" x="465.91" y="314.28" width="5.35" height="50.97"/>
    <polygon class="cls-1" points="517.55 318.62 511.53 318.62 511.53 354.29 531.72 354.29 531.72 348.89 517.55 348.89 517.55 318.62"/>
    <rect class="cls-1" x="544" y="318.62" width="6.07" height="35.68"/>
    <polygon class="cls-1" points="569.69 318.62 565.97 318.62 565.97 354.29 571.88 354.29 571.88 338.18 585.14 338.18 585.14 332.94 571.88 332.94 571.88 324.02 585.65 324.02 585.65 318.62 571.88 318.62 569.69 318.62"/>
    <polygon class="cls-1" points="604.2 318.62 600.48 318.62 600.48 354.29 604.2 354.29 606.39 354.29 622.2 354.29 622.2 348.99 606.39 348.99 606.39 337.78 621.18 337.78 621.18 332.58 606.39 332.58 606.39 323.92 622.2 323.92 622.2 318.62 606.39 318.62 604.2 318.62"/>
    <rect class="cls-1" x="661.9" y="314.28" width="5.35" height="50.97"/>
    <path class="cls-1" d="M727.89,336.6c-1.14-.73-2.44-1.25-3.87-1.63.06-.02.14-.03.2-.05,1.72-.65,3.06-1.59,4.03-2.83.97-1.24,1.45-2.74,1.45-4.51,0-2.03-.48-3.72-1.45-5.05-.97-1.33-2.31-2.31-4.03-2.96-1.72-.64-3.7-.96-5.94-.96h-10.75v35.68h11.37c2.51,0,4.73-.37,6.65-1.1,1.92-.73,3.43-1.86,4.54-3.39,1.1-1.53,1.66-3.47,1.66-5.81,0-1.7-.34-3.16-1.02-4.38-.68-1.23-1.62-2.23-2.82-3.01ZM717.87,323.56c1.66,0,3.02.41,4.08,1.23,1.06.82,1.58,1.97,1.58,3.47,0,.98-.24,1.83-.71,2.52-.48.7-1.14,1.23-1.99,1.61-.85.38-1.84.57-2.96.57h-4.33v-9.38h4.33ZM724.65,346.7c-.61.88-1.44,1.55-2.5,1.99s-2.26.66-3.62.66h-4.99v-11.72h4.99c1.02,0,1.95.11,2.81.33.85.22,1.59.58,2.22,1.07.63.5,1.13,1.11,1.48,1.84.35.73.54,1.57.54,2.53,0,1.33-.3,2.43-.92,3.31Z"/>
    <path class="cls-1" d="M765.78,342.32c0,2.21-.59,3.98-1.78,5.33-1.19,1.34-2.92,2.02-5.2,2.02s-4.05-.67-5.23-2.02c-1.17-1.34-1.75-3.12-1.75-5.33v-23.7h-6.02v23.96c0,1.97.3,3.73.91,5.28.62,1.54,1.51,2.86,2.68,3.95,1.17,1.08,2.55,1.92,4.15,2.5,1.6.58,3.35.86,5.25.86s3.65-.29,5.25-.86c1.59-.58,2.97-1.41,4.13-2.5,1.16-1.09,2.05-2.41,2.68-3.95.63-1.55.95-3.3.95-5.28v-23.96h-6.02v23.7Z"/>
    <path class="cls-1" d="M807.89,337.29c-.88-.86-1.86-1.59-2.93-2.17s-2.13-1.05-3.19-1.43c-1.9-.68-3.45-1.34-4.64-1.98-1.19-.65-2.06-1.33-2.62-2.07-.57-.73-.85-1.56-.85-2.47,0-1.02.39-1.91,1.18-2.68.78-.77,2-1.15,3.67-1.15,1.19,0,2.23.23,3.13.69.9.46,1.69,1.07,2.37,1.84.68.77,1.24,1.59,1.69,2.47l4.89-2.75c-.61-1.26-1.45-2.46-2.52-3.62-1.07-1.15-2.39-2.1-3.95-2.85-1.57-.75-3.4-1.13-5.51-1.13s-4.05.4-5.74,1.2c-1.68.8-3.01,1.92-4,3.36-.98,1.45-1.47,3.12-1.47,5.02,0,1.67.32,3.09.96,4.26.65,1.18,1.46,2.16,2.45,2.96.98.8,2.02,1.46,3.1,1.98,1.09.53,2.07.95,2.96,1.25,1.5.54,2.81,1.1,3.95,1.66,1.14.56,2.03,1.24,2.68,2.04.65.8.97,1.86.97,3.19,0,1.39-.51,2.53-1.53,3.42-1.01.88-2.34,1.33-3.98,1.33-1.36,0-2.58-.29-3.66-.85-1.09-.56-2.08-1.36-2.99-2.4-.9-1.03-1.74-2.23-2.52-3.59l-4.49,3.11c.78,1.63,1.84,3.14,3.16,4.54,1.33,1.39,2.88,2.5,4.66,3.34,1.79.83,3.73,1.25,5.84,1.25,1.53,0,3-.25,4.41-.74s2.68-1.19,3.8-2.09c1.13-.9,2-2.01,2.65-3.34s.97-2.82.97-4.49c0-1.56-.26-2.92-.79-4.08-.53-1.15-1.23-2.17-2.12-3.03Z"/>
    <rect class="cls-1" x="824.91" y="318.62" width="6.07" height="35.68"/>
    <polygon class="cls-1" points="872.93 342.57 846.88 316.83 846.88 354.29 852.8 354.29 852.8 330.34 878.84 356.08 878.84 318.62 872.93 318.62 872.93 342.57"/>
    <polygon class="cls-1" points="898.42 318.62 894.7 318.62 894.7 354.29 898.42 354.29 900.61 354.29 916.41 354.29 916.41 348.99 900.61 348.99 900.61 337.78 915.39 337.78 915.39 332.58 900.61 332.58 900.61 323.92 916.41 323.92 916.41 318.62 900.61 318.62 898.42 318.62"/>
    <path class="cls-1" d="M952.19,337.29c-.88-.86-1.86-1.59-2.93-2.17s-2.13-1.05-3.19-1.43c-1.9-.68-3.45-1.34-4.64-1.98-1.19-.65-2.06-1.33-2.62-2.07-.57-.73-.85-1.56-.85-2.47,0-1.02.39-1.91,1.18-2.68.78-.77,2-1.15,3.67-1.15,1.19,0,2.23.23,3.13.69.9.46,1.69,1.07,2.37,1.84.68.77,1.24,1.59,1.69,2.47l4.89-2.75c-.61-1.26-1.45-2.46-2.52-3.62-1.07-1.15-2.39-2.1-3.95-2.85-1.57-.75-3.4-1.13-5.51-1.13s-4.05.4-5.74,1.2c-1.68.8-3.01,1.92-4,3.36-.98,1.45-1.47,3.12-1.47,5.02,0,1.67.32,3.09.96,4.26.65,1.18,1.46,2.16,2.45,2.96.98.8,2.02,1.46,3.1,1.98,1.09.53,2.07.95,2.96,1.25,1.5.54,2.81,1.1,3.95,1.66,1.14.56,2.03,1.24,2.68,2.04.65.8.97,1.86.97,3.19,0,1.39-.51,2.53-1.53,3.42-1.01.88-2.34,1.33-3.98,1.33-1.36,0-2.58-.29-3.66-.85-1.09-.56-2.08-1.36-2.99-2.4-.9-1.03-1.74-2.23-2.52-3.59l-4.49,3.11c.78,1.63,1.84,3.14,3.16,4.54,1.33,1.39,2.88,2.5,4.66,3.34,1.79.83,3.73,1.25,5.84,1.25,1.53,0,3-.25,4.41-.74s2.68-1.19,3.8-2.09c1.13-.9,2-2.01,2.65-3.34s.97-2.82.97-4.49c0-1.56-.26-2.92-.79-4.08-.53-1.15-1.23-2.17-2.12-3.03Z"/>
    <path class="cls-1" d="M991.78,340.33c-.53-1.15-1.23-2.17-2.12-3.03s-1.86-1.59-2.93-2.17-2.13-1.05-3.19-1.43c-1.9-.68-3.45-1.34-4.64-1.98-1.19-.65-2.06-1.33-2.62-2.07-.57-.73-.85-1.56-.85-2.47,0-1.02.39-1.91,1.18-2.68.78-.77,2-1.15,3.67-1.15,1.19,0,2.23.23,3.13.69.9.46,1.69,1.07,2.37,1.84.68.77,1.24,1.59,1.69,2.47l4.89-2.75c-.61-1.26-1.45-2.46-2.52-3.62-1.07-1.15-2.39-2.1-3.95-2.85-1.57-.75-3.4-1.13-5.51-1.13s-4.05.4-5.74,1.2c-1.68.8-3.01,1.92-4,3.36-.98,1.45-1.47,3.12-1.47,5.02,0,1.67.32,3.09.96,4.26.65,1.18,1.46,2.16,2.45,2.96.98.8,2.02,1.46,3.1,1.98,1.09.53,2.07.95,2.96,1.25,1.5.54,2.81,1.1,3.95,1.66,1.14.56,2.03,1.24,2.68,2.04.65.8.97,1.86.97,3.19,0,1.39-.51,2.53-1.53,3.42-1.01.88-2.34,1.33-3.98,1.33-1.36,0-2.58-.29-3.66-.85-1.09-.56-2.08-1.36-2.99-2.4-.9-1.03-1.74-2.23-2.52-3.59l-4.49,3.11c.78,1.63,1.84,3.14,3.16,4.54,1.33,1.39,2.88,2.5,4.66,3.34,1.79.83,3.73,1.25,5.84,1.25,1.53,0,3-.25,4.41-.74,1.41-.49,2.68-1.19,3.8-2.09,1.13-.9,2-2.01,2.65-3.34.65-1.33.97-2.82.97-4.49,0-1.56-.26-2.92-.79-4.08Z"/>
  </g>
</svg>